<svg width="50" height="50" viewBox="0 0 50 50" fill="none" xmlns="http://www.w3.org/2000/svg">
<path d="M25 0C11.1895 0 0 11.1895 0 25C0 38.8105 11.1895 50 25 50C38.8105 50 50 38.8105 50 25C50 11.1895 38.8105 0 25 0ZM37.2581 31.5625C37.7319 32.0363 37.7319 32.8024 37.2581 33.2762L33.2661 37.2581C32.7923 37.7319 32.0262 37.7319 31.5524 37.2581L25 30.6452L18.4375 37.2581C17.9637 37.7319 17.1976 37.7319 16.7238 37.2581L12.7419 33.2661C12.2681 32.7923 12.2681 32.0262 12.7419 31.5524L19.3548 25L12.7419 18.4375C12.2681 17.9637 12.2681 17.1976 12.7419 16.7238L16.7339 12.7319C17.2077 12.2581 17.9738 12.2581 18.4476 12.7319L25 19.3548L31.5625 12.7419C32.0363 12.2681 32.8024 12.2681 33.2762 12.7419L37.2681 16.7339C37.7419 17.2077 37.7419 17.9738 37.2681 18.4476L30.6452 25L37.2581 31.5625Z" fill="#E1515A"/>
</svg>
